<svg xmlns="http://www.w3.org/2000/svg" xmlns:xlink="http://www.w3.org/1999/xlink" version="1.1" id="Capa_1" x="0px" y="0px" width="100px" height="100px" viewBox="5.0 -10.0 100.0 135.0" enable-background="new 0 0 100 100" xml:space="preserve">
<g id="Capa_116">
	<path d="M77.941,53.128l-34.693,8.306l3.682-23.132l17.519-4.194L77.941,53.128z M50.609,7.602l12.599,17.907l-15.945,3.817   L50.609,7.602z M36.634,22.654l11.828-14.24l-3.154,20.469L36.634,22.654z M42.108,29.048l3.356,2.41   c0.052,0.037,0.111,0.058,0.167,0.084c0.034,0.016,0.064,0.038,0.1,0.05c0.099,0.033,0.201,0.05,0.305,0.052   c0.004,0,0.007,0.002,0.011,0.002h0.001l0,0h0.001c0.076,0,0.154-0.009,0.232-0.027l11.238-2.69l4.994,3.586l-16.256,3.89   l-8.722-6.264L42.108,29.048z M21.788,46.99l13.556-15.961l9.619,6.908l-3.671,23.059L21.788,46.99z M27.253,53.377l14.189,10.189   c0.052,0.037,0.111,0.058,0.167,0.084c0.034,0.016,0.064,0.037,0.1,0.05c0.099,0.032,0.201,0.05,0.305,0.052   c0.004,0,0.007,0.002,0.011,0.002h0.001l0,0h0.001c0.077,0,0.155-0.009,0.232-0.027l30-7.182l4.994,3.586l-35.016,8.383   L22.683,54.47L27.253,53.377z M37.359,93.234L7.042,71.462l13.453-16.099l20.448,14.684L37.359,93.234z M39.315,93.677   l3.596-23.269l36.276-8.684l13.559,19.16L39.315,93.677z"/>
</g>
<text x="0.0" y="117.5" font-size="5.0" font-weight="bold" font-family="Helvetica Neue, Helvetica, Arial-Unicode, Arial, Sans-serif" fill="#000000">Created by Juan Pablo Bravo</text><text x="0.0" y="122.5" font-size="5.0" font-weight="bold" font-family="Helvetica Neue, Helvetica, Arial-Unicode, Arial, Sans-serif" fill="#000000">from the Noun Project</text></svg>