<svg xmlns="http://www.w3.org/2000/svg" xmlns:xlink="http://www.w3.org/1999/xlink" version="1.1" id="Capa_1" x="0px" y="0px" width="100px" height="100px" viewBox="5.0 -10.0 100.0 135.0" enable-background="new 0 0 100 100" xml:space="preserve">
<g id="Capa_126">
	<path d="M30.121,36.598l18.337-21.871l-4.914,31.511L30.121,36.598z M50.607,13.924L69.695,40.93l-24.201,5.794L50.607,13.924z    M33.258,41.313l10.44,7.497c0.05,0.036,0.103,0.063,0.159,0.09c0.086,0.046,0.174,0.08,0.269,0.099h0.001c0.001,0,0.001,0,0.002,0   c0.066,0.014,0.132,0.031,0.199,0.031c0.078,0,0.156-0.009,0.232-0.027l23.167-5.546l6.148,4.414l-30.603,7.324L26.267,42.986   L33.258,41.313z M24.041,43.849l17.875,12.836l-4.711,30.213L6.459,64.818L24.041,43.849z M39.16,87.339l4.714-30.229l31.866-7.625   l17.59,24.889L39.16,87.339z"/>
</g>
<text x="0.0" y="117.5" font-size="5.0" font-weight="bold" font-family="Helvetica Neue, Helvetica, Arial-Unicode, Arial, Sans-serif" fill="#000000">Created by Juan Pablo Bravo</text><text x="0.0" y="122.5" font-size="5.0" font-weight="bold" font-family="Helvetica Neue, Helvetica, Arial-Unicode, Arial, Sans-serif" fill="#000000">from the Noun Project</text></svg>